<svg width="210" height="54" viewBox="0 0 210 54" fill="none" xmlns="http://www.w3.org/2000/svg">
<path d="M0 6C0 2.68629 2.68629 0 6 0H204C207.314 0 210 2.68629 210 6V48C210 51.3137 207.314 54 204 54H6C2.68629 54 0 51.3137 0 48V6Z" fill="white"/>
<path d="M11 43.648V10.384H36.564L40.064 15.904H17.576V23.536H45.4257L47.3666 26.32L45.3736 28.96H17.576V38.128L39.064 38.176L36.064 43.648H11Z" fill="url(#paint0_linear_143_363)"/>
<path d="M37.0329 43.648C37.9929 41.856 39.0489 40.032 40.2009 38.176C41.3529 36.32 42.6009 34.4 43.9449 32.416C45.2889 30.432 46.7129 28.4 48.2169 26.32L37.5129 10.384H45.4329L52.4409 21.424L59.3529 10.384H66.8409L56.2329 26.368C57.9289 28.608 59.4649 30.768 60.8409 32.848C62.2489 34.928 63.4969 36.88 64.5849 38.704C65.6729 40.528 66.6009 42.176 67.3689 43.648H59.5929C58.9849 42.4 58.2809 41.088 57.4809 39.712C56.6809 38.336 55.8329 36.944 54.9369 35.536C54.0409 34.096 53.0969 32.688 52.1049 31.312C51.5609 32.048 50.9209 32.976 50.1849 34.096C49.4489 35.184 48.6969 36.336 47.9289 37.552C47.1929 38.768 46.5049 39.92 45.8649 41.008C45.2249 42.064 44.7449 42.944 44.4249 43.648H37.0329Z" fill="url(#paint1_linear_143_363)"/>
<path d="M68.344 43.648V10.384C69.8838 10.384 71.2697 10.384 73.1242 10.384C75.1242 10.384 76.688 10.384 78.064 10.384C82.96 10.384 86.616 10.88 89.176 12.64C91.768 14.4 93.064 17.184 93.064 20.992C93.064 23.616 92.472 25.76 91.288 27.424C90.104 29.056 88.36 30.256 86.056 31.024C83.784 31.76 81.016 32.128 77.752 32.128H74.92V43.648H68.344ZM74.92 26.512H77.656C79.512 26.512 81.08 26.352 82.36 26.032C83.672 25.712 84.648 25.152 85.288 24.352C85.96 23.552 86.296 22.416 86.296 20.944C86.296 19.536 85.96 18.448 85.288 17.68C84.616 16.912 83.672 16.384 82.456 16.096C81.272 15.776 79.912 15.616 78.376 15.616C77.704 15.616 77.064 15.648 76.456 15.712C75.848 15.744 75.336 15.776 74.92 15.808V26.512Z" fill="url(#paint2_linear_143_363)"/>
<path d="M94.064 43.648V10.384H100.64V37.984H115.568V43.648H94.064Z" fill="url(#paint3_linear_143_363)"/>
<path d="M132.696 44.32C129.72 44.32 126.984 43.664 124.488 42.352C122.024 41.04 120.056 39.104 118.584 36.544C117.112 33.952 116.376 31.4239 116.376 27.6479C116.376 24.7999 116.808 22.3039 117.672 20.1599C118.536 17.9839 119.736 16.1599 121.272 14.6879C122.808 13.2159 124.552 12.1119 126.504 11.3759C128.456 10.6399 130.52 10.2719 132.696 10.2719C135.704 10.2719 138.44 10.9279 140.904 12.2399C143.4 13.5519 145.384 15.5039 146.856 18.0959C148.328 20.6559 149.064 23.8399 149.064 27.6479C149.064 31.4239 148.328 33.952 146.856 36.544C145.416 39.104 143.464 41.04 141 42.352C138.536 43.664 135.768 44.32 132.696 44.32ZM132.696 38.56C134.712 38.56 136.424 38.08 137.832 37.12C139.272 36.16 140.376 34.816 141.144 33.088C141.912 31.36 142.296 29.9839 142.296 27.6479C142.296 25.2799 141.912 23.2319 141.144 21.5039C140.376 19.7759 139.272 18.4319 137.832 17.4719C136.424 16.5119 134.712 16.0319 132.696 16.0319C130.712 16.0319 129 16.5279 127.56 17.5199C126.152 18.4799 125.064 19.8239 124.296 21.5519C123.528 23.2799 123.144 25.3119 123.144 27.6479C123.144 29.9839 123.528 31.36 124.296 33.088C125.064 34.816 126.152 36.16 127.56 37.12C129 38.08 130.712 38.56 132.696 38.56Z" fill="url(#paint4_linear_143_363)"/>
<path d="M150.064 43.648V10.912C151.6 10.592 153.216 10.368 154.912 10.24C156.608 10.08 158.144 10 159.52 10C164.416 10 168.144 10.896 170.704 12.688C173.296 14.448 174.592 17.152 174.592 20.8C174.592 23.168 174.032 25.088 172.912 26.56C171.792 28 170.208 29.12 168.16 29.92C168.8 30.72 169.488 31.648 170.224 32.704C170.992 33.76 171.744 34.896 172.48 36.112C173.248 37.328 173.984 38.576 174.688 39.856C175.392 41.136 176.988 42.4 177.564 43.648H169.312C168.48 42.112 167.6 40.592 166.672 39.088C165.776 37.552 164.88 36.096 163.984 34.72C163.088 33.344 162.224 32.16 161.392 31.168C161.264 31.168 161.136 31.184 161.008 31.216C160.912 31.216 160.816 31.216 160.72 31.216H156.64V43.648H150.064ZM156.64 25.984H159.28C161.2 25.984 162.784 25.84 164.032 25.552C165.312 25.232 166.256 24.688 166.864 23.92C167.504 23.152 167.824 22.096 167.824 20.752C167.824 19.472 167.504 18.464 166.864 17.728C166.256 16.96 165.344 16.416 164.128 16.096C162.944 15.776 161.552 15.616 159.952 15.616C159.248 15.616 158.624 15.648 158.08 15.712C157.536 15.744 157.056 15.776 156.64 15.808V25.984Z" fill="url(#paint5_linear_143_363)"/>
<path d="M178.168 43.648V10.384H199.912V15.904H184.744V23.536H198.232V28.96H184.744V38.128H201.064V43.648H178.168Z" fill="url(#paint6_linear_143_363)"/>
<defs>
<linearGradient id="paint0_linear_143_363" x1="11" y1="27.16" x2="201.064" y2="27.16" gradientUnits="userSpaceOnUse">
<stop offset="0.285" stop-color="#8EBD55"/>
<stop offset="1" stop-color="#FBAD48"/>
</linearGradient>
<linearGradient id="paint1_linear_143_363" x1="11" y1="27.16" x2="201.064" y2="27.16" gradientUnits="userSpaceOnUse">
<stop offset="0.285" stop-color="#8EBD55"/>
<stop offset="1" stop-color="#FBAD48"/>
</linearGradient>
<linearGradient id="paint2_linear_143_363" x1="11" y1="27.16" x2="201.064" y2="27.16" gradientUnits="userSpaceOnUse">
<stop offset="0.285" stop-color="#8EBD55"/>
<stop offset="1" stop-color="#FBAD48"/>
</linearGradient>
<linearGradient id="paint3_linear_143_363" x1="11" y1="27.16" x2="201.064" y2="27.16" gradientUnits="userSpaceOnUse">
<stop offset="0.285" stop-color="#8EBD55"/>
<stop offset="1" stop-color="#FBAD48"/>
</linearGradient>
<linearGradient id="paint4_linear_143_363" x1="11" y1="27.16" x2="201.064" y2="27.16" gradientUnits="userSpaceOnUse">
<stop offset="0.285" stop-color="#8EBD55"/>
<stop offset="1" stop-color="#FBAD48"/>
</linearGradient>
<linearGradient id="paint5_linear_143_363" x1="11" y1="27.16" x2="201.064" y2="27.16" gradientUnits="userSpaceOnUse">
<stop offset="0.285" stop-color="#8EBD55"/>
<stop offset="1" stop-color="#FBAD48"/>
</linearGradient>
<linearGradient id="paint6_linear_143_363" x1="11" y1="27.16" x2="201.064" y2="27.16" gradientUnits="userSpaceOnUse">
<stop offset="0.285" stop-color="#8EBD55"/>
<stop offset="1" stop-color="#FBAD48"/>
</linearGradient>
</defs>
</svg>
